<svg xmlns="http://www.w3.org/2000/svg" viewBox="0 0 394.69 78.42"><g id="Layer_2" data-name="Layer 2"><g id="Layer_1-2" data-name="Layer 1"><path d="M110.59,50.65c-1.58,0-2.76,0-3.91-.1-4-.48-5.29,1.23-5.1,5.15.28,5.48,0,11,.08,16.48.06,2.77-1,3.91-3.8,3.79-12.5-.52-11.56,2.09-11.55-11.41,0-17.81.1-35.63-.1-53.45,0-4.79,1.57-6.5,6.37-6.18,9.94.66,20-1.07,29.86,1.14,8.66,1.93,14.7,6.82,16.41,16S138.29,39,130.4,44.38c-2.8,1.9-2.77,3.43-1.33,6.07,4.39,8,8.56,16.12,13.18,24.88-5.82,1.2-11,.54-16.16,0-1.3-.14-1.65-2-2.26-3.12q-4.59-8.87-9.23-17.72c-.83-1.58-1.4-3.47-4-3.81m-5.4-13.32c3.32,0,6.65.08,10-.16,5.17-.37,8.27-3.51,8.75-8.49s-2.28-9.26-7.2-10.47c-4.07-1-8.26-.51-12.4-.41a2.39,2.39,0,0,0-2.55,2.51q-.07,7.22,0,14.44C101.76,36.34,102.81,37.07,105.19,37.33Z"/><path d="M153,30.05c7-7.13,15.11-9.43,24.45-7.32,15.14,3.43,18.26,18.23,17.08,29.34-.31,2.91-2.74,2.46-4.65,2.47-7.33.06-14.66,0-22,0-1.79,0-3.64-.28-5.33.53,1.31,9.24,11.71,12.84,20.11,7.13,4.36-3,5.14-2.66,9.12,2.7,2.95,4-.63,5.41-2.79,7-8.62,6.33-23.1,6.56-31.65.75-9.51-6.47-13.38-18.8-9.88-31.7A27.32,27.32,0,0,1,153,30.05m12.91,6.18a13.75,13.75,0,0,0-1.67,1.84c-2.74,4.4-2,5.87,3.08,6,3,0,6,0,9,0,3.49.06,3.9-1.76,2.89-4.53C177.46,34.9,172.59,33.47,165.86,36.23Z"/><path d="M277.36,57.47c5.38,9.22,12.05,9.82,23.45,2.4a4.28,4.28,0,0,1,1.31.52c7.3,6.47,7,9.7-2,13.68-10.07,4.45-20.33,4.44-29.32-2.48-9.71-7.47-11.16-18-8.82-29.33,2.15-10.43,8.18-17.61,18.78-19.66,19.9-3.85,30.65,11.53,28.67,29.39-.32,2.83-2.69,2.56-4.64,2.57-8,0-16,0-24,.08-1.56,0-4.14-.82-3.42,2.83m1.77-19.85c-1.1,1.8-2.48,3.53-1.47,6.41,4,0,8.07,0,12.16,0,1.56,0,3.54.45,4.11-1.75a5.45,5.45,0,0,0-1.4-5C289.61,33.79,284.33,33.73,279.13,37.62Z"/><path d="M344,36.59c-7.75-4.11-13.74-1-14.33,7.28a73.81,73.81,0,0,0,.21,13c.44,4.15,2.9,7.24,7.2,7.91s7.38-1,9.26-5.11c1.15-2.52,11.68-3.88,13.52-1.82,1.25,1.4.76,3.15.25,4.74a18.93,18.93,0,0,1-12.32,12.82c-17,5.85-31.94-3.85-33.62-21.86a39.5,39.5,0,0,1,.95-13.39,24.4,24.4,0,0,1,37-14.36A17.55,17.55,0,0,1,358,31.85c1.77,3.2,4.3,7.14,2,10.21s-7.16,1.46-10.84,1.2S346.61,38.47,344,36.59Z"/><path d="M205,20.88C206.24,6.14,213.51-.73,226.63.06c3.75.23,6.34,1.15,6.09,5.84-.22,3.92.16,7.45-5.6,6.82-3.35-.36-5.77,1.49-6.41,5-.59,3.27,0,5.72,4.2,5.28,3.62-.38,5.89.3,5.86,4.95s-1,7.06-6,6.48c-3.3-.38-4.28,1.44-4.25,4.52.09,10.49-.11,21,.08,31.47.07,4-.91,5.65-5.29,5.46-11-.46-10,1.24-10.1-10.38,0-8.66-.08-17.31,0-26,0-3.07-.46-5.16-4.21-5.23-4.29-.08-3.12-3.47-3.1-5.94S197.13,23,201.19,23C202.66,23,204.28,23.12,205,20.88Z"/><path d="M370.2,43.42c-.2-4.35,1.49-8.75-5.23-9.53-3.55-.41-1.6-4.77-1.91-7.38-.21-1.81.45-3.51,2.65-3.38,4,.24,4.59-2,4.58-5.32,0-2.53-1-6.11,1.95-7.15a17.93,17.93,0,0,1,11.75.05c2.43.87,1.65,3.81,1.5,5.83-.34,4.34.42,7.13,5.76,6.59,3.5-.35,3.33,2.58,3.24,4.89s1,6.28-3,6.11c-6.19-.27-6.1,3.28-6,7.63.19,5.48.13,11,0,16.47-.08,3.7.92,6.3,5.2,6.15,3.5-.12,4.14,1.94,3.93,4.83s.94,6.45-3.76,7.38c-11.91,2.35-19.29-2.7-20.42-14.73C369.92,55.92,370.27,49.9,370.2,43.42Z"/><path d="M237.44,71.07c.06-22.26.17-44.06.17-65.85,0-3,1.09-4.21,4.09-4.2,13.2.07,10.82-.87,10.89,10.37.13,19.63-.08,39.27.11,58.91,0,4.36-1.19,6.22-5.66,5.52a22.49,22.49,0,0,0-5,0C239,76,237.28,74.8,237.44,71.07Z"/><path d="M22.49,78.42c-6.81,0-13.48,0-20.15,0-2,0-2.31-.36-2.33-2.32C0,75,0,73.83,0,72.7c0-1.36.62-2,2-2,2.81-.12,2.83-.15,2.81-3A28.73,28.73,0,0,1,6.23,57.1a17.46,17.46,0,0,1,4.23-6.65c2.63-2.51,5.34-5,8-7.44s2.5-4.19-.08-6.51c-2.39-2.15-4.71-4.38-7.08-6.56-4.2-3.87-6.1-8.78-6.41-14.38-.11-2-.09-4.07-.06-6.1,0-1-.29-1.5-1.38-1.43C-.31,8.24,0,7.63,0,4.44c0-4.35,0-4,3.9-4h47.4c2.32,0,2.51.19,2.52,2.5,0,1.13,0,2.27,0,3.41S53.35,8,52.22,8C49,8.17,49,8.2,49,11.44a43.3,43.3,0,0,1-.42,7.63c-.92,5.09-3.65,9-7.46,12.38-2.07,1.81-4.08,3.68-6.07,5.56s-2,3.71,0,5.61c2.26,2.16,4.54,4.29,6.89,6.34,5,4.34,7,9.92,7.07,16.38,0,1.42,0,2.84,0,4.26,0,.9.32,1.34,1.24,1.26a.65.65,0,0,1,.14,0c3.75-.1,3.44,0,3.45,3.51,0,4.32.29,4-4.09,4-9,0-18.07,0-27.25,0m0-36.36a6.65,6.65,0,0,1-1.61,2.31c-1.54,1.39-3.07,2.81-4.63,4.19C13,51.44,9.86,54.32,8.47,58.64c-1.17,3.64-1,7.37-1,11.1,0,1,.75.93,1.42.93q18,0,36.05,0c1.1,0,1.53-.44,1.55-1.51A45.78,45.78,0,0,0,46.16,62a16.91,16.91,0,0,0-5.57-10.71c-2.39-2.16-4.72-4.38-7.14-6.5-3.22-2.82-3.39-6.64-.29-9.61q2.67-2.55,5.44-5c3.29-2.87,6.15-6,7.2-10.44.85-3.54.73-7.13.71-10.73,0-1-.69-1-1.38-1Q27,8,8.8,8c-1,0-1.37.34-1.34,1.32,0,2.08,0,4.16.07,6.24a17.42,17.42,0,0,0,5.71,12.7c2.59,2.36,5.19,4.7,7.74,7.1A5.85,5.85,0,0,1,22.5,42.06Z"/><path d="M29.31,68.52H13.14c-2,0-2.45-.56-2.19-2.5.86-6.47,4.27-11.11,10.35-13.42s11.57-1.11,16.38,3.11a15.61,15.61,0,0,1,5.26,10.53c.18,1.8-.28,2.27-2.15,2.27C37,68.53,33.23,68.52,29.31,68.52Z"/><path d="M36.94,28.91c-2,1.91-3.87,3.74-5.75,5.6a6.62,6.62,0,0,0-2.13,3.6A2,2,0,0,1,27,40.05c-1.23,0-1.85-.73-2.07-1.91a6.63,6.63,0,0,0-2.13-3.59c-3-2.81-5.95-5.68-8.89-8.55-1.69-1.65-1.51-2.44.73-3.34a18.64,18.64,0,0,1,12.75-.47c1.31.4,2.64.71,4,1a10.15,10.15,0,0,0,7.15-.89q1-.52,2-1a1.24,1.24,0,0,1,1.54.34,1.27,1.27,0,0,1,.12,1.58,12,12,0,0,1-2.35,3C38.89,27.11,38,28,36.94,28.91Z"/><path d="M27.65,47.3c.75.81.75,1.52-.08,2.1a1.09,1.09,0,0,1-1.6-.35,1.23,1.23,0,0,1,1.68-1.75Z"/><path d="M27,42.51c.87.19,1.23.68,1.15,1.44a1.17,1.17,0,0,1-1,1,1.1,1.1,0,0,1-1.28-.66C25.46,43.34,25.87,42.73,27,42.51Z"/></g></g></svg>